<?xml version="1.0" encoding="utf-8"?>
<!-- Generator: Adobe Illustrator 27.9.0, SVG Export Plug-In . SVG Version: 6.00 Build 0)  -->
<svg version="1.1" id="_레이어_1" xmlns="http://www.w3.org/2000/svg" xmlns:xlink="http://www.w3.org/1999/xlink" x="0px"
	 y="0px" viewBox="0 0 128 128" style="enable-background:new 0 0 128 128;" xml:space="preserve">
<style type="text/css">
	.st0{fill:#F2F2F2;stroke:#000000;stroke-miterlimit:10;}
	.st1{fill:#F2F2F2;stroke:#000000;stroke-width:5;stroke-miterlimit:10;}
	.st2{fill:#FFFFFF;}
	.st3{fill:#5E5E63;stroke:#000000;stroke-width:5;stroke-miterlimit:10;}
	.st4{fill:#DDDDDD;stroke:#000000;stroke-width:5;stroke-miterlimit:10;}
	.st5{fill:#9B9B9B;stroke:#000000;stroke-width:5;stroke-miterlimit:10;}
	.st6{fill:#C9C9C9;stroke:#000000;stroke-width:5;stroke-miterlimit:10;}
	.st7{fill:#FFEC00;stroke:#000000;stroke-miterlimit:10;}
	.st8{fill:#5E5E63;stroke:#000000;stroke-miterlimit:10;}
	.st9{fill:#DDDDDD;stroke:#000000;stroke-miterlimit:10;}
	.st10{fill:#C9C9C9;stroke:#000000;stroke-miterlimit:10;}
	.st11{fill:#FFEC00;stroke:#000000;stroke-width:5;stroke-miterlimit:10;}
	.st12{fill:#F2F2F2;stroke:#000000;stroke-width:2;stroke-miterlimit:10;}
	.st13{fill:#3333FF;}
	.st14{fill:#33FF55;}
	.st15{fill:none;stroke:#A1ACE5;stroke-width:2;stroke-miterlimit:10;}
	.st16{clip-path:url(#SVGID_00000000204387560043284440000011688196388905400987_);}
	.st17{fill:#FFEC00;stroke:#000000;stroke-width:0.5;stroke-miterlimit:10;}
	.st18{fill:#F2F2F2;stroke:#000000;stroke-width:0.5;stroke-miterlimit:10;}
	.st19{fill:#5E5E63;stroke:#000000;stroke-width:0.5;stroke-miterlimit:10;}
	.st20{fill:#DDDDDD;stroke:#000000;stroke-width:0.5;stroke-miterlimit:10;}
	.st21{fill:#C9C9C9;stroke:#000000;stroke-width:0.5;stroke-miterlimit:10;}
	.st22{fill:#9B9B9B;stroke:#000000;stroke-width:0.5;stroke-miterlimit:10;}
	.st23{fill:#C9C9C9;stroke:#000000;stroke-width:0.2;stroke-miterlimit:10;}
	.st24{fill:#9B9B9B;stroke:#000000;stroke-width:0.2;stroke-miterlimit:10;}
	.st25{fill:#FFEC00;stroke:#000000;stroke-width:0.2;stroke-miterlimit:10;}
	.st26{fill:#F2F2F2;stroke:#000000;stroke-width:0.2;stroke-miterlimit:10;}
	.st27{fill:#5E5E63;stroke:#000000;stroke-width:0.2;stroke-miterlimit:10;}
	.st28{fill:#DDDDDD;stroke:#000000;stroke-width:0.2;stroke-miterlimit:10;}
	.st29{fill:#FFEC00;stroke:#000000;stroke-width:1.5;stroke-miterlimit:10;}
	.st30{fill:#F2F2F2;stroke:#000000;stroke-width:1.5;stroke-miterlimit:10;}
	.st31{fill:#5E5E63;stroke:#000000;stroke-width:1.5;stroke-miterlimit:10;}
	.st32{fill:#DDDDDD;stroke:#000000;stroke-width:1.5;stroke-miterlimit:10;}
	.st33{fill:#C9C9C9;stroke:#000000;stroke-width:1.5;stroke-miterlimit:10;}
	.st34{fill:#9B9B9B;stroke:#000000;stroke-miterlimit:10;}
</style>
<rect x="-8.8" y="179.7" class="st0" width="96" height="10.5"/>
<path class="st1" d="M-363.3,410.7h-71.1c-22.7,0-41.1-18.4-41.1-41.1V65c0-22.7,18.4-41.1,41.1-41.1h71.1
	c22.7,0,41.1,18.4,41.1,41.1v304.6C-322.2,392.3-340.6,410.7-363.3,410.7z"/>
<rect x="-1180.1" y="704.1" class="st2" width="512" height="512"/>
<ellipse transform="matrix(0.9748 -0.2229 0.2229 0.9748 250.7407 -265.4768)" class="st2" cx="-1050.5" cy="-1243.3" rx="4.5" ry="9.1"/>
<path class="st1" d="M-1081.1-1330.8l-40.9-83.4c-2.8-3.8,2.1-8.4,6.1-5.7l121.4,82.5c3.7,2.5,1.5,8-2.9,7.5l-80.5,0.9
	C-1079.3-1329.2-1080.4-1329.8-1081.1-1330.8z"/>
<path class="st1" d="M-924.1-1247.9c0,56.8-46.1,93.1-102.9,93.1c-56.8,0-102.9-36.2-102.9-93.1c0-56.8,46.1-102.9,102.9-102.9
	C-970.1-1350.9-924.1-1304.8-924.1-1247.9z"/>
<ellipse transform="matrix(0.895 -0.446 0.446 0.895 456.0423 -578.4352)" class="st3" cx="-1000.9" cy="-1258.1" rx="80.8" ry="88.3"/>
<path class="st2" d="M-1066.6-1294c-8.6,21.9-1.9,45,3.6,47.2s7.5-17.5,16.2-39.4c8.6-21.9,20.5-37.7,15.1-39.8
	C-1037.2-1328.1-1057.9-1315.8-1066.6-1294z"/>
<path class="st1" d="M-1123.3-1260.9l-100.9-67.3c-5.8-3.8-2.7-12.8,4.2-12.3l138.8,9.8c5.1,0.4,6.3,4,5.2,10.4l0,0
	c-3.5,22.5-7.9,32.6-25.6,49c-1.4,1.3-3,2.5-4.6,3.6l-5,3.2c-1,0.6-2,1.2-3.1,1.8C-1117.4-1261.1-1120.6-1259.1-1123.3-1260.9z"/>
<path class="st4" d="M-1028.7-948.8h-93.8c-22.7,0-41.1-18.4-41.1-41.1v-161.4c0-22.7,18.4-41.1,41.1-41.1h93.8
	c22.7,0,41.1,18.4,41.1,41.1v161.4C-987.6-967.2-1006-948.8-1028.7-948.8z"/>
<circle class="st5" cx="-754.9" cy="-474" r="33.5"/>
<g>
	<path class="st1" d="M-1060-948.8h-62.5c-22.7,0-41.1-18.4-41.1-41.1v-161.4c0-22.7,18.4-41.1,41.1-41.1h62.5
		c22.7,0,41.1,18.4,41.1,41.1v161.4C-1018.9-967.2-1037.3-948.8-1060-948.8z"/>
	<path class="st6" d="M-1052.2-962.6h-78c-10,0-18-8.1-18-18v-23.5c0-10,8.1-18,18-18h78c10,0,18,8.1,18,18v23.5
		C-1034.2-970.7-1042.3-962.6-1052.2-962.6z"/>
	<path class="st6" d="M-1052.2-1040.8h-78c-10,0-18-8.1-18-18v-101.7c0-10,8.1-18,18-18h78c10,0,18,8.1,18,18v101.7
		C-1034.2-1048.9-1042.3-1040.8-1052.2-1040.8z"/>
	<path class="st6" d="M-1052.2-1119h-78c-10,0-18-8.1-18-18v-23.5c0-10,8.1-18,18-18h78c10,0,18,8.1,18,18v23.5
		C-1034.2-1127.1-1042.3-1119-1052.2-1119z"/>
	<g>
		<circle class="st5" cx="-1117.4" cy="-992.4" r="16.5"/>
		<circle class="st5" cx="-1065" cy="-992.4" r="16.5"/>
	</g>
</g>
<path class="st1" d="M-1594-327.9h62.5c22.7,0,41.1-18.4,41.1-41.1v-161.4c0-22.7-18.4-41.1-41.1-41.1h-62.5
	c-22.7,0-41.1,18.4-41.1,41.1V-369C-1635.1-346.3-1616.7-327.9-1594-327.9z"/>
<g>
	<circle class="st5" cx="-1533.1" cy="-528.7" r="33.5"/>
	<circle class="st5" cx="-1533.1" cy="-449.9" r="33.5"/>
</g>
<path class="st5" d="M-1601.8-341.8h78c10,0,18-8.1,18-18v-23.5c0-10-8.1-18-18-18h-78c-10,0-18,8.1-18,18v23.5
	C-1619.8-349.8-1611.8-341.8-1601.8-341.8z"/>
<g>
	
		<ellipse transform="matrix(0.9748 -0.2229 0.2229 0.9748 -51.0353 -464.9648)" class="st2" cx="-2085" cy="-6.4" rx="4.5" ry="9.1"/>
	<path class="st1" d="M-2115.6-93.9l-40.9-83.4c-2.8-3.8,2.1-8.4,6.1-5.7l121.4,82.5c3.7,2.5,1.5,8-2.9,7.5l-80.5,0.9
		C-2113.7-92.3-2114.9-92.9-2115.6-93.9z"/>
	<path d="M-2101.5-104.7l-23.2-47.2c-1.6-2.2,1.2-4.8,3.4-3.2l68.7,46.7c2.1,1.4,0.9,4.5-1.7,4.2l-45.6,0.5
		C-2100.4-103.8-2101.1-104.1-2101.5-104.7z"/>
	<path class="st1" d="M-1958.5-11c0,56.8-46.1,93.1-102.9,93.1c-56.8,0-102.9-36.2-102.9-93.1s46.1-102.9,102.9-102.9
		C-2004.6-113.9-1958.5-67.9-1958.5-11z"/>
	
		<ellipse transform="matrix(0.895 -0.446 0.446 0.895 -204.1659 -909.9687)" class="st3" cx="-2035.4" cy="-21.2" rx="80.8" ry="88.3"/>
	<path class="st2" d="M-2101-57c-8.6,21.9-1.9,45,3.6,47.2s7.5-17.5,16.2-39.4c8.6-21.9,20.5-37.7,15.1-39.8S-2092.4-78.9-2101-57z"
		/>
	<path class="st1" d="M-2157.8-24l-100.9-67.3c-5.8-3.8-2.7-12.8,4.2-12.3l138.8,9.8c5.1,0.4,6.3,4,5.2,10.4v0
		c-3.5,22.5-7.9,32.6-25.6,49c-1.4,1.3-3,2.5-4.6,3.6l-5,3.2c-1,0.6-2,1.2-3.1,1.8C-2151.9-24.2-2155.1-22.2-2157.8-24z"/>
	<path class="st4" d="M-2052.7,311.9H-2157c-22.7,0-41.1-18.4-41.1-41.1V85.6c0-22.7,18.4-41.1,41.1-41.1h104.3
		c22.7,0,41.1,18.4,41.1,41.1v185.1C-2011.6,293.5-2030,311.9-2052.7,311.9z"/>
	<path class="st1" d="M-2085.8,311.9h-71.1c-22.7,0-41.1-18.4-41.1-41.1V85.6c0-22.7,18.4-41.1,41.1-41.1h71.1
		c22.7,0,41.1,18.4,41.1,41.1v185.1C-2044.8,293.5-2063.1,311.9-2085.8,311.9z"/>
	<g>
		<path class="st6" d="M-2082.4,208h-78c-10,0-18-8.1-18-18V88.2c0-10,8.1-18,18-18h78c10,0,18,8.1,18,18v101.7
			C-2064.4,199.9-2072.4,208-2082.4,208z"/>
		<g>
			<path class="st6" d="M-2082.4,129.7h-78c-10,0-18-8.1-18-18V88.2c0-10,8.1-18,18-18h78c10,0,18,8.1,18,18v23.5
				C-2064.4,121.7-2072.4,129.7-2082.4,129.7z"/>
			<g>
				<path class="st6" d="M-2082.4,286.2h-78c-10,0-18-8.1-18-18v-23.5c0-10,8.1-18,18-18h78c10,0,18,8.1,18,18v23.5
					C-2064.4,278.1-2072.4,286.2-2082.4,286.2z"/>
				<g>
					<circle class="st5" cx="-2147.6" cy="256.4" r="16.5"/>
					<circle class="st5" cx="-2095.2" cy="256.4" r="16.5"/>
				</g>
			</g>
		</g>
	</g>
	<path d="M-2158.4-36.5l-69-46.1c-3.9-2.6-1.8-8.8,2.9-8.4l95,6.7c3.5,0.2,4.3,2.8,3.5,7.1v0c-2.4,15.4-5.4,22.3-17.5,33.5
		c-1,0.9-2,1.7-3.2,2.5l-3.4,2.2c-0.7,0.4-1.4,0.8-2.1,1.2C-2154.3-36.6-2156.5-35.2-2158.4-36.5z"/>
</g>
<g>
	
		<ellipse transform="matrix(0.2229 -0.9748 0.9748 0.2229 -1167.8922 -1477.9795)" class="st2" cx="-1511" cy="-6.4" rx="9.1" ry="4.5"/>
	<path class="st1" d="M-1480.4-93.9l40.9-83.4c2.8-3.8-2.1-8.4-6.1-5.7l-121.4,82.5c-3.7,2.5-1.5,8,2.9,7.5l80.5,0.9
		C-1482.3-92.3-1481.1-92.9-1480.4-93.9z"/>
	<path d="M-1494.5-104.7l23.2-47.2c1.6-2.2-1.2-4.8-3.4-3.2l-68.7,46.7c-2.1,1.4-0.9,4.5,1.7,4.2l45.6,0.5
		C-1495.6-103.8-1494.9-104.1-1494.5-104.7z"/>
	<path class="st1" d="M-1637.5-11c0,56.8,46.1,93.1,102.9,93.1c56.8,0,102.9-36.2,102.9-93.1s-46.1-102.9-102.9-102.9
		C-1591.4-113.9-1637.5-67.9-1637.5-11z"/>
	
		<ellipse transform="matrix(0.446 -0.895 0.895 0.446 -845.6199 -1408.5503)" class="st3" cx="-1560.6" cy="-21.2" rx="88.3" ry="80.8"/>
	<path class="st2" d="M-1495-57c8.6,21.9,1.9,45-3.6,47.2s-7.5-17.5-16.2-39.4s-20.5-37.7-15.1-39.8
		C-1524.3-91.2-1503.6-78.9-1495-57z"/>
	<path class="st1" d="M-1438.2-24l100.9-67.3c5.8-3.8,2.7-12.8-4.2-12.3l-138.8,9.8c-5.1,0.4-6.3,4-5.2,10.4v0
		c3.5,22.5,7.9,32.6,25.6,49c1.4,1.3,3,2.5,4.6,3.6l5,3.2c1,0.6,2,1.2,3.1,1.8C-1444.1-24.2-1440.9-22.2-1438.2-24z"/>
	<path class="st4" d="M-1543.3,311.9h104.3c22.7,0,41.1-18.4,41.1-41.1V85.6c0-22.7-18.4-41.1-41.1-41.1h-104.3
		c-22.7,0-41.1,18.4-41.1,41.1v185.1C-1584.4,293.5-1566,311.9-1543.3,311.9z"/>
	<path class="st1" d="M-1510.2,311.9h71.1c22.7,0,41.1-18.4,41.1-41.1V85.6c0-22.7-18.4-41.1-41.1-41.1h-71.1
		c-22.7,0-41.1,18.4-41.1,41.1v185.1C-1551.2,293.5-1532.9,311.9-1510.2,311.9z"/>
	<g>
		<path class="st6" d="M-1513.6,208h78c10,0,18-8.1,18-18V88.2c0-10-8.1-18-18-18h-78c-10,0-18,8.1-18,18v101.7
			C-1531.6,199.9-1523.6,208-1513.6,208z"/>
		<g>
			<path class="st6" d="M-1513.6,129.7h78c10,0,18-8.1,18-18V88.2c0-10-8.1-18-18-18h-78c-10,0-18,8.1-18,18v23.5
				C-1531.6,121.7-1523.6,129.7-1513.6,129.7z"/>
			<g>
				<path class="st6" d="M-1513.6,286.2h78c10,0,18-8.1,18-18v-23.5c0-10-8.1-18-18-18h-78c-10,0-18,8.1-18,18v23.5
					C-1531.6,278.1-1523.6,286.2-1513.6,286.2z"/>
				<g>
					<circle class="st5" cx="-1448.4" cy="256.4" r="16.5"/>
					<circle class="st5" cx="-1500.8" cy="256.4" r="16.5"/>
				</g>
			</g>
		</g>
	</g>
	<path d="M-1437.6-36.5l69-46.1c3.9-2.6,1.8-8.8-2.9-8.4l-95,6.7c-3.5,0.2-4.3,2.8-3.5,7.1v0c2.4,15.4,5.4,22.3,17.5,33.5
		c1,0.9,2,1.7,3.2,2.5l3.4,2.2c0.7,0.4,1.4,0.8,2.1,1.2C-1441.7-36.6-1439.5-35.2-1437.6-36.5z"/>
</g>
<path class="st7" d="M207.7-78.4c-0.3-0.3-0.7-0.6-1-0.8l3.9-4.3l0,0c0.1-0.1,0.1-0.2,0.2-0.3c0.6-0.9,0.3-2.1-0.6-2.7
	c-0.8-0.5-1.9-0.4-2.5,0.3l0,0l-5.6,6.2c-1.4,0.3-2.7,1-3.7,2.1c-2.6,2.8-2.6,7,0,9.4c2.6,2.4,6.8,2.2,9.4-0.6
	C210.3-71.8,210.3-76,207.7-78.4z"/>
<path class="st0" d="M178.8-55l-0.3-0.5c-1.6-2.1-1.1-5.1,1-6.7l18-13.1c2.1-1.6,5.1-1.1,6.7,1l0.3,0.5c1.6,2.1,1.1,5.1-1,6.7
	l-18,13.1C183.4-52.4,180.4-52.9,178.8-55z"/>
<path class="st0" d="M143.1-26.6h19c2,0,3.7-1.7,3.7-3.7v-38.3c0-6.9-5.6-12.5-12.5-12.5h-1.5c-6.9,0-12.5,5.6-12.5,12.5v38.3
	C139.4-28.2,141.1-26.6,143.1-26.6z"/>
<path class="st0" d="M188.5-57.3l0.3-0.8c1.4-3.6-0.3-7.8-4-9.2l-20-7.9c-3.6-1.4-7.8,0.3-9.2,4l-0.3,0.8c-1.4,3.6,0.3,7.8,4,9.2
	l20,7.9C182.9-51.9,187-53.7,188.5-57.3z"/>
<ellipse transform="matrix(0.9748 -0.2229 0.2229 0.9748 23.8242 30.8023)" class="st2" cx="148.3" cy="-90.1" rx="0.8" ry="1.7"/>
<path class="st0" d="M142.8-106.1l-7.5-15.2c-0.5-0.7,0.4-1.5,1.1-1l22.2,15.1c0.7,0.5,0.3,1.5-0.5,1.4l-14.7,0.2
	C143.1-105.8,142.9-105.9,142.8-106.1z"/>
<path d="M145.3-108.1l-4.2-8.6c-0.3-0.4,0.2-0.9,0.6-0.6l12.6,8.5c0.4,0.3,0.2,0.8-0.3,0.8l-8.3,0.1
	C145.5-107.9,145.4-108,145.3-108.1z"/>
<path class="st0" d="M171.5-91c0,10.4-8.4,17-18.8,17c-10.4,0-18.8-6.6-18.8-17s8.4-18.8,18.8-18.8C163-109.8,171.5-101.3,171.5-91z
	"/>
<ellipse transform="matrix(0.895 -0.446 0.446 0.895 57.9184 60.4575)" class="st8" cx="157.4" cy="-92.8" rx="14.8" ry="16.1"/>
<path class="st2" d="M145.4-99.4c-1.6,4-0.3,8.2,0.7,8.6c1,0.4,1.4-3.2,3-7.2c1.6-4,3.8-6.9,2.8-7.3
	C150.8-105.6,147-103.4,145.4-99.4z"/>
<path class="st0" d="M135-93.3l-18.4-12.3c-1.1-0.7-0.5-2.3,0.8-2.3l25.4,1.8c0.9,0.1,1.1,0.7,0.9,1.9l0,0c-0.6,4.1-1.4,6-4.7,9
	c-0.3,0.2-0.5,0.5-0.8,0.7l-0.9,0.6c-0.2,0.1-0.4,0.2-0.6,0.3C136.1-93.4,135.5-93,135-93.3z"/>
<path class="st9" d="M145.7-31.9h-1.9c-8.9,0-16.1-7.2-16.1-16.1v-16.7c0-8.9,7.2-16.1,16.1-16.1h1.9c8.9,0,16.1,7.2,16.1,16.1V-48
	C161.8-39.1,154.6-31.9,145.7-31.9z"/>
<path class="st0" d="M142.5-31.9h-1.6c-7.3,0-13.2-5.9-13.2-13.2v-22.4c0-7.3,5.9-13.2,13.2-13.2h1.6c7.3,0,13.2,5.9,13.2,13.2v22.4
	C155.7-37.9,149.8-31.9,142.5-31.9z"/>
<path class="st10" d="M142.3-50.9h-1.2c-5.4,0-9.8-4.4-9.8-9.8v-5.5c0-5.4,4.4-9.8,9.8-9.8h1.2c5.4,0,9.8,4.4,9.8,9.8v5.5
	C152.1-55.3,147.7-50.9,142.3-50.9z"/>
<path class="st10" d="M147-65.2h-10.6c-2.8,0-5.1-2.3-5.1-5.1V-71c0-2.8,2.3-5.1,5.1-5.1H147c2.8,0,5.1,2.3,5.1,5.1v0.6
	C152.1-67.5,149.8-65.2,147-65.2z"/>
<path d="M134.9-95.6l-12.6-8.4c-0.7-0.5-0.3-1.6,0.5-1.5l17.4,1.2c0.6,0,0.8,0.5,0.6,1.3v0c-0.4,2.8-1,4.1-3.2,6.1
	c-0.2,0.2-0.4,0.3-0.6,0.4l-0.6,0.4c-0.1,0.1-0.3,0.2-0.4,0.2C135.7-95.6,135.3-95.4,134.9-95.6z"/>
<path class="st4" d="M-388.1,410.7h-179.1c-22.7,0-41.1-18.4-41.1-41.1V65c0-22.7,18.4-41.1,41.1-41.1h179.1
	c22.7,0,41.1,18.4,41.1,41.1v304.6C-347,392.3-365.4,410.7-388.1,410.7z"/>
<path class="st1" d="M-588.4-544.4l-7.8-3.3c-12-5.1-25.9,0.6-31,12.6l-31,73.5c-5.1,12,0.6,25.9,12.6,31l7.8,3.3
	c12,5.1,25.9-0.6,31-12.6l31-73.5C-570.7-525.4-576.3-539.3-588.4-544.4z"/>
<path class="st11" d="M-583.5,344.9c-2.4,0.2-4.7,0.1-7-0.2l1.8,31.6l0,0c0,0.6,0,1.2,0,1.8c-0.7,5.9-6.1,10.1-12,9.5
	c-5.3-0.6-9.3-5-9.6-10.1l0,0l-2.5-45.8c-4.7-5.9-7.8-13.4-8.5-21.7c-1.6-20.8,12.9-38.8,32.3-40.3s36.4,14.2,37.9,35
	C-549.7,325.4-564.1,343.5-583.5,344.9z"/>
<path class="st1" d="M-588.2,306.4l24.4,1.2c13,0.6,24.1-9.5,24.7-22.5l8-170.2c0.6-13-9.5-24.1-22.5-24.7L-578,89
	c-13-0.6-24.1,9.5-24.7,22.5l-8,170.2C-611.3,294.7-601.3,305.8-588.2,306.4z"/>
<path class="st11" d="M-371.6,344.9c2.4,0.2,4.7,0.1,7-0.2l-1.8,31.6l0,0c0,0.6,0,1.2,0,1.8c0.7,5.9,6.1,10.1,12,9.5
	c5.3-0.6,9.3-5,9.6-10.1l0,0l2.5-45.8c4.7-5.9,7.8-13.4,8.5-21.7c1.6-20.8-12.9-38.8-32.3-40.3c-19.4-1.5-36.4,14.2-37.9,35
	C-405.4,325.4-391,343.5-371.6,344.9z"/>
<path class="st1" d="M-366.9,306.4l-24.4,1.2c-13,0.6-24.1-9.5-24.7-22.5l-8-170.2c-0.6-13,9.5-24.1,22.5-24.7l24.4-1.2
	c13-0.6,24.1,9.5,24.7,22.5l8,170.2C-343.8,294.7-353.8,305.8-366.9,306.4z"/>
<path class="st1" d="M-529.8,410.7h104.3c22.7,0,41.1-18.4,41.1-41.1V122.1c0-22.7-18.4-41.1-41.1-41.1h-104.3
	c-22.7,0-41.1,18.4-41.1,41.1v247.5C-570.9,392.3-552.5,410.7-529.8,410.7z"/>
<g>
	
		<ellipse transform="matrix(0.9748 -0.2229 0.2229 0.9748 40.8612 -180.9758)" class="st2" cx="-781.2" cy="-271.5" rx="4.5" ry="9.1"/>
	<path class="st1" d="M-811.8-358.9l-40.9-83.4c-2.8-3.8,2.1-8.4,6.1-5.7l121.4,82.5c3.7,2.5,1.5,8-2.9,7.5l-80.5,0.9
		C-809.9-357.3-811-358-811.8-358.9z"/>
	<path d="M-797.6-369.7l-23.2-47.2c-1.6-2.2,1.2-4.8,3.4-3.2l68.7,46.7c2.1,1.4,0.9,4.5-1.7,4.2l-45.6,0.5
		C-796.6-368.8-797.2-369.2-797.6-369.7z"/>
</g>
<ellipse transform="matrix(0.895 -0.446 0.446 0.895 -309.3005 -330.0159)" class="st3" cx="-855.8" cy="492.1" rx="80.8" ry="88.3"/>
<g>
	<g>
		<path class="st1" d="M-508.3-71.9l-74.5-95.7c-4.2-5.5-13-1.7-12,5.1l19.8,137.8c0.7,5.1,4.5,6,10.8,4.4l0,0
			c22.1-5.1,32-10.2,47-29.1c1.2-1.5,2.3-3.2,3.2-4.9l2.8-5.2c0.6-1,1.1-2.1,1.6-3.2C-508-66-506.3-69.3-508.3-71.9z"/>
		<path d="M-520.7-71.6l-51-65.5c-2.9-3.7-8.9-1.2-8.2,3.5l13.6,94.3c0.5,3.5,3.1,4.1,7.4,3v0c15.2-3.5,21.9-7,32.2-19.9
			c0.8-1,1.6-2.2,2.2-3.3l1.9-3.6c0.4-0.7,0.7-1.4,1.1-2.2C-520.6-67.6-519.4-69.8-520.7-71.6z"/>
	</g>
	<g>
		<path class="st1" d="M-447.1-71.9l74.5-95.7c4.2-5.5,13-1.7,12,5.1l-19.8,137.8c-0.7,5.1-4.5,6-10.8,4.4l0,0
			c-22.1-5.1-32-10.2-47-29.1c-1.2-1.5-2.3-3.2-3.2-4.9l-2.8-5.2c-0.6-1-1.1-2.1-1.6-3.2C-447.3-66-449.1-69.3-447.1-71.9z"/>
		<path d="M-434.6-71.6l51-65.5c2.9-3.7,8.9-1.2,8.2,3.5L-389-39.3c-0.5,3.5-3.1,4.1-7.4,3l0,0c-15.2-3.5-21.9-7-32.2-19.9
			c-0.8-1-1.6-2.2-2.2-3.3l-1.9-3.6c-0.4-0.7-0.7-1.4-1.1-2.2C-434.8-67.6-436-69.8-434.6-71.6z"/>
	</g>
	<path class="st1" d="M-374.7,8c0,56.8-46.1,93.1-102.9,93.1S-580.6,64.8-580.6,8s46.1-102.9,102.9-102.9S-374.7-48.9-374.7,8z"/>
	<path class="st3" d="M-398.9,6.8c0,43.5-35.3,71.3-78.8,71.3s-78.8-27.7-78.8-71.3S-521.2-72-477.7-72S-398.9-36.7-398.9,6.8z"/>
	<path class="st2" d="M-538.1-23.5c-8.6,21.9-1.9,45,3.6,47.2c5.5,2.2,7.5-17.5,16.2-39.4c8.6-21.9,20.5-37.7,15.1-39.8
		C-508.8-57.6-529.5-45.3-538.1-23.5z"/>
</g>
<g>
	<path class="st6" d="M-534.3,125h29.7c8.1,0,14.7,6.6,14.7,14.7v12.9c0,8.1-6.6,14.7-14.7,14.7h-29.7c-8.1,0-14.7-6.6-14.7-14.7
		v-12.9C-549,131.6-542.4,125-534.3,125z"/>
	<path class="st6" d="M-541.3,149h43.8c4.2,0,7.7,3.4,7.7,7.7v3c0,4.2-3.4,7.7-7.7,7.7h-43.8c-4.2,0-7.7-3.4-7.7-7.7v-3
		C-549,152.5-545.6,149-541.3,149z"/>
</g>
<g>
	<path class="st6" d="M-460.7,125l46.7,0c4.2,0,7.7,3.4,7.7,7.7v17c0,4.2-3.4,7.7-7.7,7.7l-46.7,0c-4.2,0-7.7-3.4-7.7-7.7v-17
		C-468.4,128.4-465,125-460.7,125z"/>
	<g>
		<circle class="st5" cx="-423.1" cy="141.2" r="9"/>
		<circle class="st5" cx="-451.6" cy="141.2" r="9"/>
	</g>
</g>
<g>
	<path class="st6" d="M-460.7,168.1l46.7,0c4.2,0,7.7,3.4,7.7,7.7v17c0,4.2-3.4,7.7-7.7,7.7l-46.7,0c-4.2,0-7.7-3.4-7.7-7.7v-17
		C-468.4,171.6-465,168.1-460.7,168.1z"/>
	<g>
		<circle class="st5" cx="-423.1" cy="184.3" r="9"/>
		<circle class="st5" cx="-451.6" cy="184.3" r="9"/>
	</g>
</g>
<g>
	<path class="st6" d="M-422.4,284.1h-111.9c-8.1,0-14.7-6.6-14.7-14.7v-30.5c0-8.1,6.6-14.7,14.7-14.7h111.9
		c8.1,0,14.7,6.6,14.7,14.7v30.5C-407.7,277.5-414.3,284.1-422.4,284.1z"/>
	<path class="st6" d="M-415.4,250.1h-126c-4.2,0-7.7-3.4-7.7-7.7v-10.5c0-4.2,3.4-7.7,7.7-7.7h126c4.2,0,7.7,3.4,7.7,7.7v10.5
		C-407.7,246.6-411.1,250.1-415.4,250.1z"/>
</g>
<g>
	<path class="st6" d="M-534.3,158.2h29.7c8.1,0,14.7,6.6,14.7,14.7v12.9c0,8.1-6.6,14.7-14.7,14.7h-29.7c-8.1,0-14.7-6.6-14.7-14.7
		v-12.9C-549,164.8-542.4,158.2-534.3,158.2z"/>
	<path class="st6" d="M-541.3,182.3h43.8c4.2,0,7.7,3.4,7.7,7.7v3c0,4.2-3.4,7.7-7.7,7.7h-43.8c-4.2,0-7.7-3.4-7.7-7.7v-3
		C-549,185.7-545.6,182.3-541.3,182.3z"/>
</g>
<path class="st12" d="M-212,64.3V55c0-7.6,6.2-13.8,13.8-13.8h9.6c7.6,0,13.8,6.2,13.8,13.8v9.3c0,7.6-6.2,13.8-13.8,13.8h-9.6
	C-205.8,78.1-212,71.9-212,64.3z"/>
<g>
	<g>
		<g>
			<circle class="st13" cx="-193.4" cy="59.2" r="6.6"/>
			<path class="st14" d="M-193.5,55.2c-0.1-0.5-0.3-1-0.7-1.2c-1.6-0.9-2.6,1.4-3.8,2.1c-1.2,0.7-0.4,2.7,0.9,2c0,0,0.1-0.1,0.1-0.1
				c0.6,1.1,2.1,1.3,2.9,0.1c0.1-0.2,0.3-0.5,0.4-0.8c0.6-0.1,0.9-0.7,0.8-1.2C-192.9,55.7-193.1,55.4-193.5,55.2z"/>
			<path class="st14" d="M-191.3,61.2C-191.3,61.2-191.4,61.2-191.3,61.2c-0.1-0.1-0.1-0.3-0.1-0.4c-0.2-1.1-1.7-1.3-2.1-0.3
				c-0.1,0.4-0.3,0.6-0.6,0.8c0,0,0,0,0,0c-0.6-0.3-1.5,0.2-1.5,0.9c-0.1,1.4,1.4,1.9,2.5,1.5c0.7,0,1.5-0.1,2.2-0.3
				c0.6-0.1,1-0.6,0.9-1.3C-190.2,61.6-190.7,61.1-191.3,61.2z"/>
			<path class="st14" d="M-191.4,53.8c-1.3-0.7-2.1,1.4-0.9,2c0,0.2,0,0.3,0,0.5c0.2,0.7,0.6,1.2,1.1,1.7c0.5,0.6,0.6,1,0.7,1.8
				c0.1,1.3,2,1.2,2.2,0C-187.9,57.3-189.2,54.9-191.4,53.8z"/>
		</g>
	</g>
	
		<ellipse transform="matrix(0.8364 -0.5482 0.5482 0.8364 -64.1177 -96.3143)" class="st15" cx="-193.4" cy="59.2" rx="15.2" ry="3.4"/>
	<g>
		<defs>
			<path id="SVGID_1_" d="M-202,50.6v17.2h17.2V50.6H-202z M-191,62.9c-0.2,0.2-2.7,1.7-5.6,3.2c-0.7-0.3-1.3-0.7-1.9-1.2
				c1.8-0.9,4-2.1,6.4-3.7c2.2-1.4,4-2.8,5.5-4.1l0.5,0.3c0.1,0.2,0.1,0.5,0.1,0.7c0,0.3,0.1,0.6,0.1,1
				C-188.3,61.2-190.7,62.8-191,62.9z"/>
		</defs>
		<clipPath id="SVGID_00000027587677034788277330000001063006186001689766_">
			<use xlink:href="#SVGID_1_"  style="overflow:visible;"/>
		</clipPath>
		<g style="clip-path:url(#SVGID_00000027587677034788277330000001063006186001689766_);">
			<circle class="st13" cx="-193.4" cy="59.2" r="6.6"/>
			<path class="st14" d="M-193.5,55.2c-0.1-0.5-0.3-1-0.7-1.2c-1.6-0.9-2.6,1.4-3.8,2.1c-1.2,0.7-0.4,2.7,0.9,2c0,0,0.1-0.1,0.1-0.1
				c0.6,1.1,2.1,1.3,2.9,0.1c0.1-0.2,0.3-0.5,0.4-0.8c0.6-0.1,0.9-0.7,0.8-1.2C-192.9,55.7-193.1,55.4-193.5,55.2z"/>
			<path class="st14" d="M-191.3,61.2C-191.3,61.2-191.4,61.2-191.3,61.2c-0.1-0.1-0.1-0.3-0.1-0.4c-0.2-1.1-1.7-1.3-2.1-0.3
				c-0.1,0.4-0.3,0.6-0.6,0.8c0,0,0,0,0,0c-0.6-0.3-1.5,0.2-1.5,0.9c-0.1,1.4,1.4,1.9,2.5,1.5c0.7,0,1.5-0.1,2.2-0.3
				c0.6-0.1,1-0.6,0.9-1.3C-190.2,61.6-190.7,61.1-191.3,61.2z"/>
			<path class="st14" d="M-191.4,53.8c-1.3-0.7-2.1,1.4-0.9,2c0,0.2,0,0.3,0,0.5c0.2,0.7,0.6,1.2,1.1,1.7c0.5,0.6,0.6,1,0.7,1.8
				c0.1,1.3,2,1.2,2.2,0C-187.9,57.3-189.2,54.9-191.4,53.8z"/>
		</g>
	</g>
</g>
<g>
	<path class="st17" d="M228.7,104.1c-0.2,0-0.4,0-0.5,0l0.4-2.4l0,0c0,0,0-0.1,0-0.1c0-0.4-0.4-0.8-0.8-0.8c-0.4,0-0.7,0.3-0.8,0.7
		l0,0l-0.6,3.4c-0.4,0.4-0.7,0.9-0.8,1.6c-0.3,1.5,0.6,3,2.1,3.3s2.8-0.8,3.1-2.3C231.1,105.9,230.2,104.4,228.7,104.1z"/>
	<path class="st18" d="M221.7,116.8l-0.6-0.5c-0.8-0.6-0.9-1.7-0.3-2.4l5.1-6.6c0.6-0.8,1.7-0.9,2.4-0.3l0.6,0.5
		c0.8,0.6,0.9,1.7,0.3,2.4l-5.1,6.6C223.5,117.2,222.5,117.4,221.7,116.8z"/>
	<path class="st18" d="M211.9,130h2c2.5,0,4.5-2,4.5-4.5v-15.9c0-2.5-2-4.5-4.5-4.5h-2c-2.5,0-4.5,2-4.5,4.5v15.9
		C207.4,128,209.4,130,211.9,130z"/>
	<path class="st18" d="M224.8,116l0.6-1c0.7-1.2,0.3-2.8-0.9-3.5l-6.6-3.8c-1.2-0.7-2.8-0.3-3.5,0.9l-0.6,1
		c-0.7,1.2-0.3,2.8,0.9,3.5l6.6,3.8C222.5,117.6,224.1,117.2,224.8,116z"/>
	<g>
		
			<ellipse transform="matrix(0.9748 -0.2229 0.2229 0.9748 -17.2897 49.6004)" class="st2" cx="211.1" cy="101.4" rx="0.3" ry="0.7"/>
		<path class="st18" d="M208.7,94.8l-3.1-6.3c-0.2-0.3,0.2-0.6,0.5-0.4l9.2,6.2c0.3,0.2,0.1,0.6-0.2,0.6l-6.1,0.1
			C208.9,94.9,208.8,94.9,208.7,94.8z"/>
		<path d="M209.8,94l-1.7-3.6c-0.1-0.2,0.1-0.4,0.3-0.2l5.2,3.5c0.2,0.1,0.1,0.3-0.1,0.3l-3.4,0C209.9,94,209.8,94,209.8,94z"/>
		<path class="st18" d="M220.6,101c0,4.3-3.5,7-7.8,7c-4.3,0-7.8-2.7-7.8-7c0-4.3,3.5-7.8,7.8-7.8C217.1,93.3,220.6,96.7,220.6,101z
			"/>
		<ellipse transform="matrix(0.895 -0.446 0.446 0.895 -22.1733 106.3148)" class="st19" cx="214.8" cy="100.3" rx="6.1" ry="6.7"/>
		<path class="st2" d="M209.8,97.6c-0.7,1.6-0.1,3.4,0.3,3.6c0.4,0.2,0.6-1.3,1.2-3c0.7-1.6,1.5-2.8,1.1-3
			C212.1,95,210.5,95.9,209.8,97.6z"/>
		<path class="st18" d="M205.6,100.1L198,95c-0.4-0.3-0.2-1,0.3-0.9l10.5,0.7c0.4,0,0.5,0.3,0.4,0.8l0,0c-0.3,1.7-0.6,2.5-1.9,3.7
			c-0.1,0.1-0.2,0.2-0.3,0.3l-0.4,0.2c-0.1,0-0.2,0.1-0.2,0.1C206,100,205.8,100.2,205.6,100.1z"/>
		<path class="st20" d="M210.8,125.4h-2.5c-3.2,0-5.8-2.6-5.8-5.8V111c0-3.2,2.6-5.8,5.8-5.8h2.5c3.2,0,5.8,2.6,5.8,5.8v8.6
			C216.6,122.8,214,125.4,210.8,125.4z"/>
		<path class="st18" d="M209.3,125.4h-2.1c-2.6,0-4.7-2.1-4.7-4.7V110c0-2.6,2.1-4.7,4.7-4.7h2.1c2.6,0,4.7,2.1,4.7,4.7v10.7
			C214.1,123.3,212,125.4,209.3,125.4z"/>
		<g>
			<path class="st21" d="M209.1,117.6h-1.5c-2,0-3.5-1.6-3.5-3.5v-3.3c0-2,1.6-3.5,3.5-3.5h1.5c2,0,3.5,1.6,3.5,3.5v3.3
				C212.6,116,211,117.6,209.1,117.6z"/>
			<g>
				<path class="st21" d="M210.8,111.7h-4.9c-1,0-1.8-0.8-1.8-1.8V109c0-1,0.8-1.8,1.8-1.8h4.9c1,0,1.8,0.8,1.8,1.8v0.8
					C212.6,110.8,211.8,111.7,210.8,111.7z"/>
				<g>
					<path class="st21" d="M210.8,123.5h-4.9c-1,0-1.8-0.8-1.8-1.8v-0.8c0-1,0.8-1.8,1.8-1.8h4.9c1,0,1.8,0.8,1.8,1.8v0.8
						C212.6,122.6,211.8,123.5,210.8,123.5z"/>
					<g>
						<circle class="st22" cx="206.3" cy="121.2" r="1.2"/>
						<circle class="st22" cx="210.3" cy="121.2" r="1.2"/>
					</g>
				</g>
			</g>
		</g>
		<path d="M205.5,99.1l-5.2-3.5c-0.3-0.2-0.1-0.7,0.2-0.6l7.2,0.5c0.3,0,0.3,0.2,0.3,0.5l0,0c-0.2,1.2-0.4,1.7-1.3,2.5
			c-0.1,0.1-0.2,0.1-0.2,0.2l-0.3,0.2c-0.1,0-0.1,0.1-0.2,0.1C205.8,99.1,205.7,99.2,205.5,99.1z"/>
	</g>
</g>
<g>
	<path class="st23" d="M269.5,80.2h-2c-0.4,0-0.8-0.4-0.8-0.8v-0.3c0-0.4,0.4-0.8,0.8-0.8h2c0.4,0,0.8,0.4,0.8,0.8v0.3
		C270.3,79.8,270,80.2,269.5,80.2z"/>
	<g>
		<circle class="st24" cx="267.7" cy="79.2" r="0.5"/>
		<circle class="st24" cx="269.3" cy="79.2" r="0.5"/>
	</g>
</g>
<path class="st25" d="M286.8,63.8c-0.1,0-0.2,0-0.2,0l0.2-1.1l0,0c0,0,0,0,0-0.1c0-0.2-0.2-0.4-0.4-0.4c-0.2,0-0.4,0.1-0.4,0.3l0,0
	l-0.3,1.6c-0.2,0.2-0.3,0.4-0.4,0.7c-0.1,0.7,0.3,1.4,1,1.6s1.3-0.4,1.5-1.1C288,64.6,287.5,63.9,286.8,63.8z"/>
<path class="st26" d="M283.6,69.8l-0.4-0.3c-0.3-0.3-0.4-0.7-0.1-1l2.5-3.2c0.3-0.3,0.7-0.4,1-0.1l0.4,0.3c0.3,0.3,0.4,0.7,0.1,1
	l-2.5,3.2C284.4,70,283.9,70.1,283.6,69.8z"/>
<path class="st26" d="M277.6,71.8h3.4c0.5,0,0.9-0.4,0.9-0.9v-4.7c0-1.1-0.9-1.9-1.9-1.9h-1.3c-1.1,0-1.9,0.9-1.9,1.9v4.7
	C276.7,71.4,277.1,71.8,277.6,71.8z"/>
<path class="st26" d="M284.9,69.5l0.4-0.6c0.3-0.5,0.1-1.2-0.4-1.5l-3.3-1.9c-0.5-0.3-1.2-0.1-1.5,0.4l-0.4,0.6
	c-0.3,0.5-0.1,1.2,0.4,1.5l3.3,1.9C283.9,70.2,284.6,70,284.9,69.5z"/>
<ellipse transform="matrix(0.9748 -0.2229 0.2229 0.9748 -6.9278 63.6509)" class="st2" cx="278.5" cy="62.5" rx="0.2" ry="0.3"/>
<path class="st26" d="M277.4,59.4l-1.5-3c-0.1-0.1,0.1-0.3,0.2-0.2l4.3,2.9c0.1,0.1,0.1,0.3-0.1,0.3l-2.9,0
	C277.4,59.4,277.4,59.4,277.4,59.4z"/>
<path d="M277.9,59l-0.8-1.7c-0.1-0.1,0-0.2,0.1-0.1l2.5,1.7c0.1,0.1,0,0.2-0.1,0.2L277.9,59C277.9,59,277.9,59,277.9,59z"/>
<path class="st26" d="M283,62.3c0,2-1.6,3.3-3.7,3.3c-2,0-3.7-1.3-3.7-3.3s1.6-3.7,3.7-3.7C281.3,58.7,283,60.3,283,62.3z"/>
<ellipse transform="matrix(0.895 -0.446 0.446 0.895 1.7688 131.4833)" class="st27" cx="280.2" cy="62" rx="2.9" ry="3.1"/>
<path class="st2" d="M277.9,60.7c-0.3,0.8-0.1,1.6,0.1,1.7c0.2,0.1,0.3-0.6,0.6-1.4c0.3-0.8,0.7-1.3,0.5-1.4
	C278.9,59.5,278.2,59.9,277.9,60.7z"/>
<path class="st26" d="M275.9,61.9l-3.6-2.4c-0.2-0.1-0.1-0.5,0.2-0.4l5,0.3c0.2,0,0.2,0.1,0.2,0.4v0c-0.1,0.8-0.3,1.2-0.9,1.7
	c-0.1,0-0.1,0.1-0.2,0.1l-0.2,0.1c0,0-0.1,0-0.1,0.1C276.1,61.9,276,61.9,275.9,61.9z"/>
<path class="st28" d="M280.2,70.9h-4.9c-0.5,0-0.9-0.4-0.9-0.9v-3.2c0-1.4,1.1-2.5,2.5-2.5h1.7c1.4,0,2.5,1.1,2.5,2.5V70
	C281.1,70.5,280.7,70.9,280.2,70.9z"/>
<path class="st26" d="M279,70.9h-3.7c-0.5,0-0.9-0.4-0.9-0.9v-3.6c0-1.1,0.9-2,2-2h1.4c1.1,0,2,0.9,2,2V70
	C279.9,70.5,279.5,70.9,279,70.9z"/>
<path class="st23" d="M278.3,70.2H276c-0.5,0-0.9-0.4-0.9-0.9v-2.5c0-0.8,0.7-1.5,1.5-1.5h1c0.8,0,1.5,0.7,1.5,1.5v2.5
	C279.2,69.8,278.8,70.2,278.3,70.2z"/>
<path class="st23" d="M278.4,67.4h-2.5c-0.4,0-0.8-0.4-0.8-0.8V66c0-0.4,0.4-0.8,0.8-0.8h2.5c0.4,0,0.8,0.4,0.8,0.8v0.5
	C279.2,67,278.8,67.4,278.4,67.4z"/>
<path d="M275.8,61.4l-2.5-1.6c-0.1-0.1-0.1-0.3,0.1-0.3l3.4,0.2c0.1,0,0.2,0.1,0.1,0.3l0,0c-0.1,0.5-0.2,0.8-0.6,1.2
	c0,0-0.1,0.1-0.1,0.1l-0.1,0.1c0,0,0,0-0.1,0C276,61.4,275.9,61.5,275.8,61.4z"/>
<path class="st17" d="M232,63.5c-0.2,0-0.5-0.1-0.7-0.1l0.6-3.3l0,0c0-0.1,0-0.1,0-0.2c0-0.6-0.5-1.1-1.1-1.1c-0.6,0-1,0.4-1.1,0.9
	l0,0l-0.8,4.7c-0.6,0.6-1,1.3-1.1,2.2c-0.4,2.1,0.9,4.2,2.9,4.6c2,0.4,4-1,4.4-3.2C235.3,65.9,234,63.8,232,63.5z"/>
<path class="st18" d="M221.9,80.7L221.9,80.7c-1.3-1-1.5-2.8-0.5-4.1l6.4-8.4c1-1.3,2.8-1.5,4.1-0.5l0,0c1.3,1,1.5,2.8,0.5,4.1
	l-6.4,8.4C225,81.4,223.2,81.7,221.9,80.7z"/>
<path class="st18" d="M203.3,86.9h13.4c0.5,0,0.9-0.4,0.9-0.9V66.7c0-1.1-0.9-1.9-1.9-1.9h-11.3c-1.1,0-1.9,0.9-1.9,1.9V86
	C202.4,86.5,202.8,86.9,203.3,86.9z"/>
<path class="st18" d="M226.9,79.3L226.9,79.3c1.2-2.1,0.5-4.7-1.6-5.9l-7.8-4.5c-2.1-1.2-4.7-0.5-5.9,1.6v0
	c-1.2,2.1-0.5,4.7,1.6,5.9l7.8,4.5C223.1,82,225.7,81.3,226.9,79.3z"/>
<ellipse transform="matrix(0.9748 -0.2229 0.2229 0.9748 -8.0714 47.7578)" class="st2" cx="207.5" cy="59.6" rx="0.5" ry="0.9"/>
<path class="st18" d="M204.3,50.5l-4.3-8.7c-0.3-0.4,0.2-0.9,0.6-0.6l12.7,8.6c0.4,0.3,0.2,0.8-0.3,0.8l-8.4,0.1
	C204.5,50.6,204.4,50.6,204.3,50.5z"/>
<path d="M205.8,49.3l-2.4-4.9c-0.2-0.2,0.1-0.5,0.4-0.3l7.2,4.9c0.2,0.1,0.1,0.5-0.2,0.4l-4.8,0.1C205.9,49.4,205.8,49.4,205.8,49.3
	z"/>
<path class="st18" d="M220.7,59.2c0,6-4.8,9.7-10.8,9.7c-6,0-10.8-3.8-10.8-9.7c0-6,4.8-10.8,10.8-10.8
	C215.9,48.4,220.7,53.2,220.7,59.2z"/>
<ellipse transform="matrix(0.895 -0.446 0.446 0.895 -3.5805 100.9503)" class="st19" cx="212.7" cy="58.1" rx="8.5" ry="9.2"/>
<path class="st2" d="M205.8,54.3c-0.9,2.3-0.2,4.7,0.4,4.9s0.8-1.8,1.7-4.1s2.2-3.9,1.6-4.2S206.7,52,205.8,54.3z"/>
<path class="st18" d="M199.9,57.8l-10.6-7c-0.6-0.4-0.3-1.3,0.4-1.3l14.5,1c0.5,0,0.7,0.4,0.5,1.1l0,0c-0.4,2.4-0.8,3.4-2.7,5.1
	c-0.2,0.1-0.3,0.3-0.5,0.4l-0.5,0.3c-0.1,0.1-0.2,0.1-0.3,0.2C200.5,57.8,200.2,58,199.9,57.8z"/>
<path class="st20" d="M214.3,84.2h-17.7c-0.5,0-0.9-0.4-0.9-0.9V67.5c0-1.4,1.1-2.5,2.5-2.5h14.6c1.4,0,2.5,1.1,2.5,2.5v15.9
	C215.2,83.8,214.8,84.2,214.3,84.2z"/>
<path class="st18" d="M210.8,84.2h-14.3c-0.5,0-0.9-0.4-0.9-0.9V67c0-1.1,0.9-2,2-2h12c1.1,0,2,0.9,2,2v16.3
	C211.7,83.8,211.3,84.2,210.8,84.2z"/>
<path class="st21" d="M208.8,82.1h-10.2c-0.5,0-0.9-0.4-0.9-0.9v-12c0-0.8,0.7-1.5,1.5-1.5h8.9c0.8,0,1.5,0.7,1.5,1.5v12
	C209.7,81.7,209.3,82.1,208.8,82.1z"/>
<path class="st21" d="M208.9,73.9h-10.4c-0.4,0-0.8-0.4-0.8-0.8v-4.6c0-0.4,0.4-0.8,0.8-0.8h10.4c0.4,0,0.8,0.4,0.8,0.8v4.6
	C209.7,73.5,209.3,73.9,208.9,73.9z"/>
<path d="M199.8,56.5l-7.2-4.8c-0.4-0.3-0.2-0.9,0.3-0.9l9.9,0.7c0.4,0,0.4,0.3,0.4,0.7v0c-0.2,1.6-0.6,2.3-1.8,3.5
	c-0.1,0.1-0.2,0.2-0.3,0.3l-0.4,0.2c-0.1,0-0.1,0.1-0.2,0.1C200.2,56.5,200,56.6,199.8,56.5z"/>
<path class="st29" d="M105.8,62.9c-0.5-0.1-1-0.1-1.5-0.1l1.2-6.8l0,0c0-0.1,0-0.3,0-0.4c0-1.3-1.1-2.4-2.4-2.4
	c-1.2,0-2.1,0.8-2.3,2l0,0L99.1,65c-1.2,1.2-2,2.7-2.4,4.5c-0.9,4.5,1.8,8.7,6,9.5s8.3-2.2,9.1-6.7C112.7,68,110,63.7,105.8,62.9z"
	/>
<path class="st30" d="M84.6,98.8L84.6,98.8c-2.7-2.1-3.2-5.9-1.1-8.5l13.4-17.4c2.1-2.7,5.9-3.2,8.5-1.1l0,0
	c2.7,2.1,3.2,5.9,1.1,8.5L93.1,97.7C91.1,100.4,87.3,100.9,84.6,98.8z"/>
<path class="st30" d="M44.8,111.9h29.8c0.5,0,0.9-0.4,0.9-0.9V67.6c0-1.1-0.9-1.9-1.9-1.9H45.9c-1.1,0-1.9,0.9-1.9,1.9V111
	C43.9,111.5,44.3,111.9,44.8,111.9z"/>
<path class="st30" d="M95.2,95.8L95.2,95.8c2.5-4.3,1-9.8-3.3-12.3l-16.2-9.4c-4.3-2.5-9.8-1-12.3,3.3l0,0c-2.5,4.3-1,9.8,3.3,12.3
	l16.2,9.4C87.2,101.6,92.7,100.1,95.2,95.8z"/>
<ellipse transform="matrix(0.9748 -0.2229 0.2229 0.9748 -10.86 13.5541)" class="st2" cx="54.6" cy="54.9" rx="1" ry="2"/>
<path class="st30" d="M47.9,35.8L39,17.5c-0.6-0.8,0.4-1.8,1.3-1.2l26.5,18c0.8,0.5,0.3,1.7-0.6,1.6l-17.6,0.2
	C48.3,36.1,48.1,36,47.9,35.8z"/>
<path d="M51,33.4l-5.1-10.3c-0.4-0.5,0.3-1,0.8-0.7l15,10.2c0.5,0.3,0.2,1-0.4,0.9l-10,0.1C51.2,33.6,51.1,33.5,51,33.4z"/>
<path class="st30" d="M82.2,53.9c0,12.4-10.1,20.3-22.5,20.3s-22.5-7.9-22.5-20.3s10.1-22.5,22.5-22.5S82.2,41.5,82.2,53.9z"/>
<ellipse transform="matrix(0.895 -0.446 0.446 0.895 -16.1664 34.6052)" class="st31" cx="65.4" cy="51.6" rx="17.7" ry="19.3"/>
<path class="st2" d="M51.1,43.8c-1.9,4.8-0.4,9.8,0.8,10.3c1.2,0.5,1.6-3.8,3.5-8.6s4.5-8.2,3.3-8.7C57.5,36.4,53,39,51.1,43.8z"/>
<path class="st30" d="M38.7,51l-22-14.7c-1.3-0.8-0.6-2.8,0.9-2.7l30.3,2.1c1.1,0.1,1.4,0.9,1.1,2.3v0c-0.8,4.9-1.7,7.1-5.6,10.7
	c-0.3,0.3-0.7,0.6-1,0.8l-1.1,0.7c-0.2,0.1-0.4,0.3-0.7,0.4C40,51,39.3,51.4,38.7,51z"/>
<path class="st32" d="M69.7,106.2H30.8c-0.5,0-0.9-0.4-0.9-0.9V68.5c0-1.4,1.1-2.5,2.5-2.5h35.8c1.4,0,2.5,1.1,2.5,2.5v36.8
	C70.6,105.8,70.2,106.2,69.7,106.2z"/>
<path class="st30" d="M62.5,106.2H30.8c-0.5,0-0.9-0.4-0.9-0.9V68.1c0-1.1,0.9-2,2-2h29.4c1.1,0,2,0.9,2,2v37.3
	C63.4,105.8,63,106.2,62.5,106.2z"/>
<path class="st33" d="M58.2,101.7H35.1c-0.5,0-0.9-0.4-0.9-0.9V73.1c0-0.8,0.7-1.5,1.5-1.5h21.9c0.8,0,1.5,0.7,1.5,1.5l0,27.7
	C59.1,101.3,58.7,101.7,58.2,101.7z"/>
<path class="st33" d="M58.3,84.6H35c-0.4,0-0.8-0.4-0.8-0.8V72.4c0-0.4,0.4-0.8,0.8-0.8h23.3c0.4,0,0.8,0.4,0.8,0.8v11.4
	C59.1,84.3,58.8,84.6,58.3,84.6z"/>
<path d="M38.6,48.3L23.5,38.2c-0.9-0.6-0.4-1.9,0.6-1.8l20.8,1.5c0.8,0.1,0.9,0.6,0.8,1.6v0c-0.5,3.4-1.2,4.9-3.8,7.3
	c-0.2,0.2-0.4,0.4-0.7,0.5l-0.8,0.5c-0.1,0.1-0.3,0.2-0.5,0.3C39.5,48.3,39,48.6,38.6,48.3z"/>
<g>
	<path class="st10" d="M51.9,98.6H41.4c-2.8,0-5.1-2.3-5.1-5.1v-0.6c0-2.8,2.3-5.1,5.1-5.1h10.6c2.8,0,5.1,2.3,5.1,5.1v0.6
		C57.1,96.3,54.8,98.6,51.9,98.6z"/>
	<g>
		<circle class="st34" cx="41.9" cy="93.2" r="3"/>
		<circle class="st34" cx="51.4" cy="93.2" r="3"/>
	</g>
</g>
</svg>
